<?xml version="1.0" encoding="utf-8"?>
<!-- Generator: Adobe Illustrator 24.3.0, SVG Export Plug-In . SVG Version: 6.00 Build 0)  -->
<svg version="1.1" id="Слой_1" xmlns="http://www.w3.org/2000/svg" xmlns:xlink="http://www.w3.org/1999/xlink" x="0px" y="0px"
	 viewBox="0 0 50 50" style="enable-background:new 0 0 50 50;" xml:space="preserve">
<style type="text/css">
	.st0{fill:none;stroke:#000000;stroke-width:3;stroke-miterlimit:10;}
</style>
<circle class="st0" cx="25" cy="25" r="17.5"/>
<path d="M18.68,32.82c0.12,0.19,0.39,0.54,0.53,0.79c0.08,0.16,0.2,0.53,0.29,0.7c0.09,0.19,0.36,0.7,0.36,0.7
	c0.1,0.17,0.22,0.32,0.35,0.46c0,0,0.53,0.68,0.8,0.73c0.13,0.02,0.43-0.08,0.5-0.2c0.2-0.33,0.1-1.17,0.1-1.56
	c0-0.3,0.08-0.78,0.08-1.18v-1.09c0-0.78,0.25-1.53,0.7-2.16l0.53-0.73c0.29-0.4,0.62-0.75,1-1.06c0,0,1.2-0.74,1.4-1.15
	c0.08-0.17,0.12-0.59,0.03-0.76c-0.12-0.21-0.54-0.54-0.78-0.6c-0.21-0.05-0.85,0.08-0.85,0.08c-0.11,0.01-0.21,0.03-0.31,0.07
	l-0.75,0.28c-0.34,0.13-0.72,0.11-1.05-0.04c-0.41-0.19-0.94-0.5-1.21-0.94l-0.63-0.78c-0.04-0.05-0.08-0.11-0.11-0.16
	c0,0-0.39-0.99-0.65-1.21c-0.15-0.12-0.71-0.31-0.99-0.4c-0.11-0.03-0.2-0.09-0.29-0.16l-0.73-0.63c-0.12-0.1-0.21-0.22-0.29-0.35
	c0,0-0.6-0.95-0.77-1.29c-0.15-0.31-0.32-0.83-0.41-1.3c-0.22-1.21-0.13-1.88,0.85-2.64c0,0,0.74-0.42,1-0.53
	c0.38-0.17,1.18-0.43,1.59-0.54c0.26-0.08,0.79-0.19,1.04-0.29c0.17-0.07,0.55-0.18,0.64-0.33c0.1-0.16,0.04-0.53,0-0.7
	c-0.11-0.47-0.39-1.4-0.55-1.85c-0.27-0.74-1.26-2.9-1.26-2.9l2.75-1.19c0,0,1.05,2.36,1.36,3.16c0.12,0.31,0.33,0.95,0.42,1.28
	c0.07,0.27,0.17,0.84,0.21,1.12c0.05,0.38,0.1,1.16,0.07,1.55c-0.02,0.29-0.17,0.86-0.3,1.11c-0.08,0.16-0.34,0.43-0.47,0.56
	c-0.13,0.13-0.4,0.37-0.56,0.47C21.78,17.45,20.03,18,20.03,18l-0.89,0.22c0,0-0.42,0.11-0.48,0.23c-0.11,0.24,0.13,0.79,0.27,1.02
	c0.08,0.13,0.24,0.42,0.36,0.5c0.14,0.09,0.47,0.12,0.63,0.17c0.19,0.06,0.53,0.24,0.69,0.35c0.15,0.11,0.54,0.54,0.54,0.54
	c0.33,0.33,0.63,0.7,0.89,1.1l0.4,0.63c0.1,0.15,0.27,0.22,0.45,0.19l1.01-0.21c0.3-0.06,0.62-0.05,0.92,0.03
	c0,0,0.89,0.19,1.17,0.31c0.17,0.07,0.47,0.29,0.61,0.4c0.25,0.19,0.96,0.78,0.96,0.78c0.62,0.51,0.95,1.3,0.86,2.1l-0.16,1.47
	c-0.06,0.52-0.31,0.99-0.72,1.32l-1.75,1.43c-0.16,0.13-0.3,0.28-0.42,0.45l-0.55,0.76c-0.09,0.12-0.13,0.26-0.13,0.4v1.11
	c0,0.26,0.01,0.52,0.04,0.78l0.12,1.01c0.16,1.38-0.58,2.71-1.84,3.31l-0.86,0.41c-0.37,0.17-0.76,0.26-1.14,0.26
	c-0.7,0-1.39-0.28-1.91-0.8l-1.62-1.66c-0.12-0.12-0.23-0.25-0.34-0.38c-0.3-0.38-0.63-1.3-0.63-1.3l-0.78-1.07
	c-0.17-0.25-0.51-1.11-0.51-1.11c-0.1-0.31-0.13-0.98-0.16-1.31c-0.03-0.37-0.16-1.48-0.16-1.48c-0.02-0.22-0.1-0.42-0.23-0.6
	c0,0-1.3-1.59-1.57-2.21c-0.12-0.28-0.18-0.89-0.2-1.2c-0.01-0.19,0.01-0.62,0.03-0.9c0.01-0.17-0.05-0.33-0.17-0.45
	c-0.26-0.25-0.7-0.69-0.89-0.87c-0.45-0.43-1.82-1.7-1.82-1.7c-0.22-0.2-0.41-0.42-0.58-0.66c-0.66-0.95-1.52-2.21-1.74-2.61
	l-0.08-0.13l2.62-1.46l0.07,0.12c0.1,0.17,0.64,0.99,1.6,2.38c0.04,0.05,0.09,0.1,0.14,0.16l2.47,2.25
	c0.05,0.04,0.09,0.09,0.14,0.14l0.62,0.77c0.04,0.05,0.08,0.11,0.11,0.17l0.34,0.65c0.08,0.15,0.12,0.31,0.12,0.48
	c0,0-0.01,0.76,0,1.01c0.01,0.22-0.04,0.66,0.05,0.86c0.14,0.33,0.73,0.78,0.97,1.04c0.19,0.21,0.54,0.66,0.66,0.92
	c0.15,0.32,0.35,1.02,0.4,1.37l0.07,1.27c0.01,0.12,0.02,0.24,0.05,0.36c0,0,0.04,0.67,0.1,0.89
	C18.23,32.15,18.54,32.61,18.68,32.82z"/>
<path d="M32.22,13.42c0.01,0.1,0.23,0.2,0.33,0.2c0.32,0,1.22-0.41,1.22-0.41c0.35-0.12,0.72-0.16,1.08-0.13
	c0.35,0.03,0.94,0.08,1.28,0.12c0.23,0.03,0.45,0.01,0.67-0.07l1.35-0.48l1.01,2.83l-1.35,0.48c-0.67,0.24-1.39,0.31-2.09,0.22
	c-0.29-0.04-0.8-0.08-1.1-0.1l-1.2,0.42c-0.29,0.1-0.6,0.15-0.9,0.15c-0.52,0-1.04-0.15-1.5-0.43l-0.7-0.44
	c-0.96-0.6-1.41-1.77-1.1-2.86l0.04-0.13c0.23-0.8,0.68-1.5,1.31-2.03l2.33-1.98l1.94,2.29C34.84,11.06,32.14,12.54,32.22,13.42z
	 M32.11,13.73L32.11,13.73C32.11,13.73,32.11,13.73,32.11,13.73z"/>
<path d="M36.08,22.06c0.44-0.04,0.89,0,1.33,0.1l1.67,0.39c0.51,0.12,1.03,0.15,1.55,0.1l1.83-0.18l-0.3-2.99l-1.84,0.18
	c-0.19,0.02-0.39,0.01-0.58-0.04l-1.67-0.39c-0.74-0.17-1.5-0.23-2.25-0.16l-1.09,0.09c-1.03,0.09-1.94,0.67-2.46,1.56l-0.56,0.99
	c-0.86,1.5-0.69,3.38,0.41,4.7l0.65,0.77c0.48,0.58,1.06,1.06,1.71,1.44l1.05,0.61c0.18,0.11,0.29,0.3,0.29,0.51v2.06l-0.13,1.57
	c-0.1,1.24,0.4,2.46,1.34,3.28l0.73,0.63l1.95-2.28L39,34.38c-0.22-0.18-0.33-0.46-0.31-0.75l0.13-1.59c0-0.07,0.01-0.14,0.01-0.21
	v-2.08c0-1.28-0.68-2.45-1.78-3.1L36,26.04c-0.35-0.21-0.67-0.47-0.93-0.78l-0.64-0.77c-0.3-0.36-0.35-0.88-0.11-1.29l0.3-0.53
	c0.17-0.29,0.46-0.49,0.79-0.53L36.08,22.06z"/>
</svg>
