<?xml version="1.0" encoding="utf-8"?>
<!-- Generator: Adobe Illustrator 24.3.0, SVG Export Plug-In . SVG Version: 6.00 Build 0)  -->
<svg version="1.1" id="Слой_1" xmlns="http://www.w3.org/2000/svg" xmlns:xlink="http://www.w3.org/1999/xlink" x="0px" y="0px"
	 viewBox="0 0 50 50" style="enable-background:new 0 0 50 50;" xml:space="preserve">
<g>
	<path d="M35,7c1.66,0,3,1.34,3,3s-1.34,3-3,3s-3-1.34-3-3S33.34,7,35,7 M35,4c-3.31,0-6,2.69-6,6s2.69,6,6,6s6-2.69,6-6
		S38.31,4,35,4L35,4z"/>
</g>
<g>
	<path d="M15,22c1.66,0,3,1.34,3,3s-1.34,3-3,3s-3-1.34-3-3S13.34,22,15,22 M15,19c-3.31,0-6,2.69-6,6s2.69,6,6,6s6-2.69,6-6
		S18.31,19,15,19L15,19z"/>
</g>
<g>
	<path d="M28,37c1.66,0,3,1.34,3,3s-1.34,3-3,3s-3-1.34-3-3S26.34,37,28,37 M28,34c-3.31,0-6,2.69-6,6s2.69,6,6,6s6-2.69,6-6
		S31.31,34,28,34L28,34z"/>
</g>
<g>
	<path d="M15,22c1.66,0,3,1.34,3,3s-1.34,3-3,3s-3-1.34-3-3S13.34,22,15,22 M15,19c-3.31,0-6,2.69-6,6s2.69,6,6,6s6-2.69,6-6
		S18.31,19,15,19L15,19z"/>
</g>
<g>
	<path d="M12,25c0-0.77,0.3-1.47,0.78-2H7c-1.1,0-2,0.9-2,2c0,1.1,0.9,2,2,2h5.78C12.3,26.47,12,25.77,12,25z"/>
	<path d="M43,23H17.22C17.7,23.53,18,24.23,18,25s-0.3,1.47-0.78,2H43c1.1,0,2-0.9,2-2C45,23.9,44.1,23,43,23z"/>
</g>
<g>
	<path d="M25,40c0-0.77,0.3-1.47,0.78-2H7c-1.1,0-2,0.9-2,2c0,1.1,0.9,2,2,2h18.78C25.3,41.47,25,40.77,25,40z"/>
	<path d="M43,38H30.22C30.7,38.53,31,39.23,31,40s-0.3,1.47-0.78,2H43c1.1,0,2-0.9,2-2C45,38.9,44.1,38,43,38z"/>
</g>
<g>
	<path d="M43,8h-5.78C37.7,8.53,38,9.23,38,10s-0.3,1.47-0.78,2H43c1.1,0,2-0.9,2-2C45,8.9,44.1,8,43,8z"/>
	<path d="M32,10c0-0.77,0.3-1.47,0.78-2H7c-1.1,0-2,0.9-2,2c0,1.1,0.9,2,2,2h25.78C32.3,11.47,32,10.77,32,10z"/>
</g>
</svg>
