<?xml version="1.0" encoding="utf-8"?>
<!-- Generator: Adobe Illustrator 24.3.0, SVG Export Plug-In . SVG Version: 6.00 Build 0)  -->
<svg version="1.1" id="Слой_1" xmlns="http://www.w3.org/2000/svg" xmlns:xlink="http://www.w3.org/1999/xlink" x="0px" y="0px"
	 viewBox="0 0 50 50" style="enable-background:new 0 0 50 50;" xml:space="preserve">
<style type="text/css">
	.st0{fill:none;stroke:#000000;stroke-width:3;stroke-miterlimit:10;}
</style>
<g>
	<path class="st0" d="M6.97,28.19l2.12,2.12c0.98,0.98,2.56,0.98,3.54,0L23.23,19.7c0.98-0.98,2.56-0.98,3.54,0l10.61,10.61
		c0.98,0.98,2.56,0.98,3.54,0l2.12-2.12c0.98-0.98,0.98-2.56,0-3.54L26.77,8.39c-0.98-0.98-2.56-0.98-3.54,0L6.97,24.65
		C5.99,25.63,5.99,27.21,6.97,28.19z"/>
	<g>
		<path class="st0" d="M11.5,30.33v9.51c0,1.38,1.12,2.5,2.5,2.5h4.5c1.38,0,2.5-1.12,2.5-2.5v-5c0-1.38,1.12-2.5,2.5-2.5h3
			c1.38,0,2.5,1.12,2.5,2.5v5c0,1.38,1.12,2.5,2.5,2.5H36c1.38,0,2.5-1.12,2.5-2.5v-9.51"/>
	</g>
</g>
</svg>
