<?xml version="1.0" encoding="utf-8"?>
<!-- Generator: Adobe Illustrator 24.3.0, SVG Export Plug-In . SVG Version: 6.00 Build 0)  -->
<svg version="1.1" id="Слой_1" xmlns="http://www.w3.org/2000/svg" xmlns:xlink="http://www.w3.org/1999/xlink" x="0px" y="0px"
	 viewBox="0 0 50 50" style="enable-background:new 0 0 50 50;" xml:space="preserve">
<g>
	<g>
		<path d="M25,9.25c3.75,0,6.8,3.05,6.8,6.8s-3.05,6.8-6.8,6.8s-6.8-3.05-6.8-6.8S21.25,9.25,25,9.25 M25,6.25
			c-5.41,0-9.8,4.39-9.8,9.8s4.39,9.8,9.8,9.8s9.8-4.39,9.8-9.8S30.41,6.25,25,6.25L25,6.25z"/>
	</g>
	<path d="M25,23.25c-9.65,0-17.5,7.85-17.5,17.5v0.5c0,1.38,1.12,2.5,2.5,2.5h30c1.38,0,2.5-1.12,2.5-2.5v-0.5
		C42.5,31.1,34.65,23.25,25,23.25z M11.3,40.75c-0.59,0-1.04-0.51-1-1.1c0.57-7.61,6.94-13.63,14.7-13.63s14.13,6.02,14.7,13.63
		c0.04,0.59-0.41,1.1-1,1.1L11.3,40.75z"/>
</g>
</svg>
