<?xml version="1.0" encoding="utf-8"?>
<!-- Generator: Adobe Illustrator 24.3.0, SVG Export Plug-In . SVG Version: 6.00 Build 0)  -->
<svg version="1.1" id="Слой_1" xmlns="http://www.w3.org/2000/svg" xmlns:xlink="http://www.w3.org/1999/xlink" x="0px" y="0px"
	 viewBox="0 0 50 50" style="enable-background:new 0 0 50 50;" xml:space="preserve">
<g>
	<path d="M35.28,31.95c2.1-2.88,3.19-6.54,2.77-10.46c-0.76-7.15-6.7-12.83-13.87-13.31c-9.1-0.61-16.61,6.9-16,16
		c0.48,7.17,6.17,13.11,13.31,13.88c3.92,0.42,7.58-0.68,10.46-2.77c0.41-0.3,0.96-0.27,1.32,0.09l6.03,6.05
		c0.59,0.59,1.54,0.59,2.12,0l0,0c0.59-0.59,0.59-1.54,0-2.12l-6.05-6.03C35.01,32.91,34.98,32.36,35.28,31.95z M23.14,35.14
		c-6.62,0-12-5.38-12-12s5.38-12,12-12s12,5.38,12,12S29.76,35.14,23.14,35.14z"/>
</g>
</svg>
